<svg width="190" height="59" viewBox="0 0 190 59" fill="none" xmlns="http://www.w3.org/2000/svg">
<path d="M23.2447 20.3544C23.1348 20.526 22.9836 20.6427 22.8324 20.6427C22.798 20.6427 20.0762 20.8143 18.8116 22.661C18.2136 23.526 17.8081 24.796 17.6226 26.471C20.413 26.5877 22.2069 26.6426 22.2069 26.6426C22.5437 26.6975 22.7636 27.0477 22.7636 27.5076V34.7844C22.7636 35.2443 22.5368 35.6493 22.2069 35.6493C22.2069 35.6493 20.2687 35.766 17.2927 35.821C17.2583 38.0177 17.2583 40.036 17.2583 41.3609C17.2583 47.0794 17.0315 57.5277 17.0315 57.6444C17.0315 58.1044 16.7703 58.4545 16.4748 58.4545H4.43313C4.13759 58.4545 3.87641 58.1112 3.87641 57.6444C3.87641 57.5277 3.31969 45.8094 3.24409 35.7592C1.56706 35.6974 0.563592 35.6425 0.522354 35.6425C0.226811 35.6562 0 35.2512 0 34.7844V27.5076C0 27.0477 0.226811 26.6975 0.522354 26.6426C0.556719 26.6426 1.60143 26.5808 3.31969 26.5259C3.42966 22.0226 3.84205 18.0959 5.21666 15.3842C7.07927 11.8625 9.46422 10.6475 14.4197 10.6475C20.791 10.6475 22.3512 12.0891 22.5024 12.2676C22.6537 12.3843 22.7293 12.6108 22.7636 12.8442L23.3959 19.661C23.3959 19.8876 23.3547 20.1759 23.2447 20.3544Z" fill="white"/>
<path d="M50.1724 57.6524C50.1724 58.1124 49.9181 58.4625 49.6226 58.4625H36.55C36.2545 58.4625 36.0345 58.1193 36.0001 57.6524C36.0001 57.5357 35.8902 50.4375 36.1101 41.4857C36.3301 32.5339 36.5844 25.6072 36.5844 25.5454C36.6187 25.0855 36.8387 24.7354 37.1342 24.7354H49.0727C49.3683 24.7354 49.6226 25.0786 49.6226 25.5454C49.6226 25.6003 49.9525 32.5339 50.1381 41.4857C50.358 50.4924 50.1724 57.5975 50.1724 57.6524Z" fill="white"/>
<path d="M80.4351 57.6524C80.4351 58.1124 80.1808 58.4625 79.8852 58.4625H66.8195C66.524 58.4625 66.304 58.1193 66.2697 57.6524C66.2697 57.5357 66.1597 50.4375 66.3797 41.4857C66.5996 32.5339 66.8539 25.6072 66.8539 25.5454C66.8883 25.0855 67.1082 24.7354 67.4037 24.7354H79.3354C79.6309 24.7354 79.8852 25.0786 79.8852 25.5454C79.8852 25.6003 80.2151 32.5339 80.4007 41.4857C80.6207 50.4924 80.4351 57.5975 80.4351 57.6524Z" fill="white"/>
<path d="M110.706 57.6524C110.706 58.1124 110.451 58.4625 110.156 58.4625H97.0832C96.7877 58.4625 96.5677 58.1193 96.5334 57.6524C96.5334 57.5357 96.4234 50.4375 96.6433 41.4857C96.8633 32.5339 97.1176 25.6072 97.1176 25.5454C97.1519 25.0855 97.3719 24.7354 97.6674 24.7354H109.599C109.895 24.7354 110.149 25.0786 110.149 25.5454C110.149 25.6003 110.479 32.5339 110.664 41.4857C110.891 50.4924 110.706 57.5975 110.706 57.6524Z" fill="white"/>
<path d="M103.642 22.443C108.231 22.443 111.951 18.7272 111.951 14.1434C111.951 9.55962 108.231 5.84375 103.642 5.84375C99.0523 5.84375 95.332 9.55962 95.332 14.1434C95.332 18.7272 99.0523 22.443 103.642 22.443Z" fill="url(#paint0_linear_652_11)"/>
<path d="M73.376 22.443C77.9652 22.443 81.6855 18.7272 81.6855 14.1434C81.6855 9.55962 77.9652 5.84375 73.376 5.84375C68.7867 5.84375 65.0664 9.55962 65.0664 14.1434C65.0664 18.7272 68.7867 22.443 73.376 22.443Z" fill="url(#paint1_linear_652_11)"/>
<path d="M43.1064 22.443C47.6957 22.443 51.416 18.7272 51.416 14.1434C51.416 9.55962 47.6957 5.84375 43.1064 5.84375C38.5172 5.84375 34.7969 9.55962 34.7969 14.1434C34.7969 18.7272 38.5172 22.443 43.1064 22.443Z" fill="url(#paint2_linear_652_11)"/>
<path d="M139.235 22.443C143.825 22.443 147.545 18.7272 147.545 14.1434C147.545 9.55962 143.825 5.84375 139.235 5.84375C134.646 5.84375 130.926 9.55962 130.926 14.1434C130.926 18.7272 134.646 22.443 139.235 22.443Z" fill="white"/>
<path d="M161.403 22.4482C167.61 22.4482 172.641 17.423 172.641 11.2241C172.641 5.02519 167.61 0 161.403 0C155.197 0 150.166 5.02519 150.166 11.2241C150.166 17.423 155.197 22.4482 161.403 22.4482Z" fill="white"/>
<path d="M188.926 31.2844L178.829 39.5086V26.836C178.829 25.6758 177.888 24.7354 176.726 24.7354H126.828C125.666 24.7354 124.725 25.6758 124.725 26.836V56.3618C124.725 57.522 125.666 58.4625 126.828 58.4625H134.856C132.91 56.9454 131.66 54.5838 131.66 51.9271C131.66 47.3414 135.378 43.6275 139.969 43.6275C144.56 43.6275 148.279 47.3414 148.279 51.9271C148.279 54.5838 147.028 56.9454 145.083 58.4625H157.172C155.227 56.9454 153.976 54.5838 153.976 51.9271C153.976 47.3414 157.695 43.6275 162.286 43.6275C166.877 43.6275 170.596 47.3414 170.596 51.9271C170.596 54.5838 169.345 56.9454 167.4 58.4625H176.726C177.888 58.4625 178.829 57.522 178.829 56.3618V43.6961L188.926 51.9203C189.359 52.2704 189.998 51.9683 189.998 51.4123V31.7993C189.998 31.2433 189.352 30.9343 188.926 31.2844Z" fill="white"/>
<defs>
<linearGradient id="paint0_linear_652_11" x1="111.716" y1="16.1301" x2="95.5729" y2="12.1517" gradientUnits="userSpaceOnUse">
<stop stop-color="#E42256"/>
<stop offset="0.0399" stop-color="#E32955"/>
<stop offset="0.3278" stop-color="#DD4547"/>
<stop offset="0.5933" stop-color="#D9543B"/>
<stop offset="0.8258" stop-color="#D65B33"/>
<stop offset="1" stop-color="#D55E30"/>
</linearGradient>
<linearGradient id="paint1_linear_652_11" x1="81.447" y1="16.1301" x2="65.3044" y2="12.1517" gradientUnits="userSpaceOnUse">
<stop stop-color="#E42256"/>
<stop offset="0.0399" stop-color="#E32955"/>
<stop offset="0.3278" stop-color="#DD4547"/>
<stop offset="0.5933" stop-color="#D9543B"/>
<stop offset="0.8258" stop-color="#D65B33"/>
<stop offset="1" stop-color="#D55E30"/>
</linearGradient>
<linearGradient id="paint2_linear_652_11" x1="51.1815" y1="16.1301" x2="35.0387" y2="12.1517" gradientUnits="userSpaceOnUse">
<stop stop-color="#E42256"/>
<stop offset="0.0399" stop-color="#E32955"/>
<stop offset="0.3278" stop-color="#DD4547"/>
<stop offset="0.5933" stop-color="#D9543B"/>
<stop offset="0.8258" stop-color="#D65B33"/>
<stop offset="1" stop-color="#D55E30"/>
</linearGradient>
</defs>
</svg>
