<svg width="55" height="50" viewBox="0 0 55 50" fill="none" xmlns="http://www.w3.org/2000/svg">
<path d="M12.2263 19.1958C16.0932 19.1958 19.228 16.0182 19.228 12.0984C19.228 8.17861 16.0932 5.00098 12.2263 5.00098C8.35939 5.00098 5.22461 8.17861 5.22461 12.0984C5.22461 16.0182 8.35939 19.1958 12.2263 19.1958Z" fill="#E0602E"/>
<path d="M30.9063 19.1965C36.1357 19.1965 40.3751 14.8992 40.3751 9.59827C40.3751 4.29729 36.1357 0 30.9063 0C25.6768 0 21.4375 4.29729 21.4375 9.59827C21.4375 14.8992 25.6768 19.1965 30.9063 19.1965Z" fill="#E0602E"/>
<path d="M54.0966 26.7587L45.5891 33.7915V22.9546C45.5891 21.9625 44.7957 21.1582 43.817 21.1582H1.77214C0.793407 21.1582 0 21.9625 0 22.9546V48.2036C0 49.1957 0.793407 50 1.77214 50H8.53641C6.89747 48.7026 5.84344 46.6831 5.84344 44.4113C5.84344 40.4898 8.97655 37.3138 12.8451 37.3138C16.7137 37.3138 19.8468 40.4898 19.8468 44.4113C19.8468 46.6831 18.7928 48.7026 17.1538 50H27.3407C25.7018 48.7026 24.6478 46.6831 24.6478 44.4113C24.6478 40.4898 27.7809 37.3138 31.6495 37.3138C35.5181 37.3138 38.6512 40.4898 38.6512 44.4113C38.6512 46.6831 37.5971 48.7026 35.9582 50H43.817C44.7957 50 45.5891 49.1957 45.5891 48.2036V37.3667L54.0966 44.3995C54.4614 44.6989 55 44.4406 55 43.9651V27.1931C55 26.7176 54.4556 26.4593 54.0966 26.7587Z" fill="#E0602E"/>
</svg>
