<svg width="118" height="27" viewBox="0 0 118 27" fill="none" xmlns="http://www.w3.org/2000/svg">
<path fill-rule="evenodd" clip-rule="evenodd" d="M9.5299 3.252L14.4019 3.252L21.0659 24H16.7259L15.2699 18.68H8.5499L7.0939 24H2.8939L9.5299 3.252ZM11.9751 6.45099C11.972 6.43933 11.969 6.42766 11.9659 6.416H11.8259C11.8228 6.42905 11.8198 6.44211 11.8167 6.45516C11.5237 7.7024 11.2055 8.97454 10.876 10.2251C10.6096 11.2364 10.3357 12.2336 10.0619 13.192L9.4459 15.46H14.3739L13.7579 13.192C13.4728 12.2377 13.2042 11.2394 12.9424 10.2289C12.7965 9.66608 12.6528 9.09945 12.5095 8.53445C12.3318 7.83399 12.1547 7.13604 11.9751 6.45099ZM10.0761 20.68L8.62008 26H0.154419L8.06977 1.252L15.8602 1.252L23.8089 26H15.1997L13.7437 20.68H10.0761ZM25.4914 26V1.252L34.3514 1.252C36.6111 1.252 38.9176 1.57481 40.7205 2.64529C42.6881 3.81354 43.8554 5.75781 43.8554 8.376C43.8554 9.77279 43.423 11.2928 42.5563 12.532C42.8318 12.7601 43.0916 13.0135 43.3319 13.2939C44.374 14.5097 44.9194 16.0811 44.9194 17.896C44.9194 20.6246 43.741 22.7675 41.7579 24.1523C39.8678 25.4721 37.4064 26 34.8834 26H25.4914ZM41.156 13.973C40.5675 13.5192 39.8606 13.2007 39.0808 13.0089C39.063 13.0045 39.0452 13.0002 39.0274 12.996V12.856C39.0395 12.8518 39.0516 12.8475 39.0637 12.8431C39.7807 12.5838 40.3803 12.1017 40.8377 11.4923C41.492 10.6207 41.8554 9.48879 41.8554 8.376C41.8554 4.512 38.6074 3.252 34.3514 3.252L27.4914 3.252V24H34.8834C39.4474 24 42.9194 22.068 42.9194 17.896C42.9194 16.0972 42.2376 14.8068 41.156 13.973ZM33.6354 8.444V9.708H34.0434C35.1371 9.708 35.5768 9.47948 35.7032 9.38258C35.7526 9.34466 35.7671 9.31938 35.7777 9.29568C35.7921 9.26337 35.8234 9.17389 35.8234 8.992C35.8234 8.82539 35.8032 8.73798 35.7926 8.70363C35.7504 8.6759 35.6188 8.60519 35.3262 8.54447C35.0334 8.4837 34.6331 8.444 34.0994 8.444H33.6354ZM33.6354 16.76V18.808H34.5194C35.7554 18.808 36.3606 18.5771 36.6102 18.4008C36.7123 18.3287 36.7613 18.263 36.7954 18.1911C36.8341 18.1095 36.8874 17.9451 36.8874 17.644C36.8874 17.3906 36.8408 17.2827 36.8254 17.2526C36.815 17.2322 36.7933 17.1924 36.6986 17.132C36.445 16.9702 35.8157 16.76 34.5194 16.76H33.6354ZM66.9809 22.809C64.9406 25.147 62.0572 26.392 58.782 26.392C55.5068 26.392 52.6234 25.147 50.5831 22.809C48.5643 20.4957 47.514 17.2816 47.514 13.556C47.514 9.81718 48.5644 6.63318 50.5993 4.35816C52.6532 2.06182 55.5376 0.888 58.782 0.888C62.0307 0.888 64.9142 2.07176 66.966 4.37008C68.9986 6.647 70.05 9.82937 70.05 13.556C70.05 17.2816 68.9997 20.4957 66.9809 22.809ZM56.7497 17.7002C57.2765 18.4587 57.9408 18.808 58.782 18.808C59.6232 18.808 60.2875 18.4587 60.8143 17.7002C61.3862 16.8766 61.822 15.5041 61.822 13.556C61.822 11.5908 61.3851 10.2685 60.8311 9.49518C60.3272 8.79169 59.6693 8.444 58.782 8.444C57.8946 8.444 57.2368 8.79169 56.7329 9.49518C56.1789 10.2685 55.742 11.5908 55.742 13.556C55.742 15.5041 56.1778 16.8766 56.7497 17.7002ZM94.0569 1.252V14.676C94.0569 18.356 93.2785 21.3487 91.4602 23.4321C89.5941 25.5702 86.9534 26.392 84.0489 26.392C81.1564 26.392 78.5093 25.5695 76.6284 23.4416C74.7897 21.3615 73.9849 18.3685 73.9849 14.676V1.252H82.1289V15.04C82.1289 17.0331 82.4917 17.9498 82.7844 18.339C82.982 18.6019 83.2785 18.808 84.0489 18.808C84.8646 18.808 85.1956 18.5899 85.4082 18.3157C85.708 17.9289 86.0809 17.0214 86.0809 15.04V1.252L94.0569 1.252ZM80.1289 3.252V15.04C80.1289 19.352 81.6409 20.808 84.0489 20.808C86.5129 20.808 88.0809 19.352 88.0809 15.04V3.252H92.0569V14.676C92.0569 21.564 89.1169 24.392 84.0489 24.392C79.0089 24.392 75.9849 21.564 75.9849 14.676V3.252H80.1289ZM103.158 26V8.724H97.3342V1.252L117.182 1.252V8.724H111.302V26H103.158ZM99.3342 6.724V3.252L115.182 3.252V6.724H109.302V24H105.158V6.724H99.3342ZM31.6354 11.708H34.0434C36.6754 11.708 37.8234 10.644 37.8234 8.992C37.8234 7.172 36.5914 6.444 34.0994 6.444H31.6354V11.708ZM31.6354 20.808H34.5194C37.3474 20.808 38.8874 19.8 38.8874 17.644C38.8874 15.628 37.3754 14.76 34.5194 14.76H31.6354V20.808ZM68.05 13.556C68.05 20.276 64.27 24.392 58.782 24.392C53.294 24.392 49.514 20.276 49.514 13.556C49.514 6.808 53.294 2.888 58.782 2.888C64.27 2.888 68.05 6.836 68.05 13.556ZM53.742 13.556C53.742 17.98 55.702 20.808 58.782 20.808C61.862 20.808 63.822 17.98 63.822 13.556C63.822 9.104 61.862 6.444 58.782 6.444C55.702 6.444 53.742 9.104 53.742 13.556Z" fill="#F08627"/>
</svg>
