<svg width="176" height="27" viewBox="0 0 176 27" fill="none" xmlns="http://www.w3.org/2000/svg">
<path fill-rule="evenodd" clip-rule="evenodd" d="M0.821411 26V1.252H8.96541V9.428H12.8054V1.252H20.9214V26H12.8054V17.04H8.96541V26H0.821411ZM6.96541 3.252V11.428H14.8054V3.252H18.9214V24H14.8054V15.04H6.96541V24H2.82141V3.252H6.96541ZM40.4437 22.809C38.4034 25.147 35.52 26.392 32.2448 26.392C28.9696 26.392 26.0862 25.147 24.0459 22.809C22.0272 20.4957 20.9768 17.2816 20.9768 13.556C20.9768 9.81718 22.0273 6.63318 24.0621 4.35816C26.116 2.06182 29.0004 0.888 32.2448 0.888C35.4935 0.888 38.377 2.07176 40.4288 4.37008C41.1058 5.12849 41.674 5.98734 42.1307 6.93331L41.042 1.252H49.3621L50.6475 9.13873L52.5211 1.252H59.2424L61.0881 9.11242L62.3692 1.252H70.3933L65.8178 26H57.4044L55.7379 18.651L54.1114 26H45.7845L43.5051 14.1053C43.4065 17.5974 42.3626 20.6101 40.4437 22.809ZM54.7737 13.752C55.1084 12.1342 55.3875 10.5441 55.6665 8.95419C55.6675 8.94823 55.6686 8.94228 55.6696 8.93633L55.7817 8.936C55.7827 8.94274 55.7838 8.94947 55.7849 8.95621C56.0363 10.5455 56.3431 12.1349 56.6777 13.752L59.0017 24H64.1537L67.9897 3.252H64.0697L62.4177 13.388C62.3716 13.7103 62.3256 14.0338 62.2795 14.3586C62.0189 16.1967 61.7583 18.0719 61.4976 19.9672C61.4963 19.9768 61.495 19.9864 61.4937 19.996H61.3537C61.3523 19.9894 61.351 19.9828 61.3497 19.9762C61.1901 19.1777 61.0339 18.3792 60.8788 17.5858C60.6698 16.5167 60.4626 15.4569 60.251 14.4188C60.1805 14.0727 60.1094 13.7289 60.0377 13.388L57.6577 3.252H54.1017L51.6937 13.388C51.6228 13.729 51.5519 14.0714 51.4812 14.4151C51.1057 16.2393 50.7333 18.0999 50.3806 19.9802C50.3796 19.9855 50.3787 19.9907 50.3777 19.996H50.2657C50.2647 19.9888 50.2637 19.9816 50.2627 19.9744C50.0899 18.7186 49.9083 17.4803 49.7279 16.2497C49.6351 15.6166 49.5426 14.9856 49.4517 14.3553C49.4052 14.0328 49.3591 13.7104 49.3137 13.388L47.6617 3.252H43.4617L47.4377 24H52.5057L54.7737 13.752ZM30.2126 17.7002C30.7393 18.4587 31.4036 18.808 32.2448 18.808C33.0861 18.808 33.7503 18.4587 34.2771 17.7002C34.849 16.8766 35.2848 15.5041 35.2848 13.556C35.2848 11.5908 34.8479 10.2685 34.2939 9.49518C33.79 8.79169 33.1322 8.444 32.2448 8.444C31.3575 8.444 30.6996 8.79169 30.1957 9.49518C29.6417 10.2685 29.2048 11.5908 29.2048 13.556C29.2048 15.5041 29.6406 16.8766 30.2126 17.7002ZM79.5585 26V8.724H73.7345V1.252H93.5825V5.00587C93.7523 4.78252 93.9304 4.56653 94.1168 4.35816C96.1707 2.06182 99.0551 0.888 102.3 0.888C105.548 0.888 108.432 2.07176 110.483 4.37008C112.516 6.647 113.568 9.82937 113.568 13.556C113.568 17.2816 112.517 20.4957 110.498 22.809C108.458 25.147 105.575 26.392 102.3 26.392C99.0243 26.392 96.1409 25.147 94.1006 22.809C92.0818 20.4957 91.0315 17.2816 91.0315 13.556C91.0315 11.8128 91.2599 10.1901 91.7099 8.724H87.7025V26H79.5585ZM75.7345 6.724V3.252H91.5825V6.724H85.7025V24H81.5585V6.724H75.7345ZM100.267 17.7002C100.794 18.4587 101.458 18.808 102.3 18.808C103.141 18.808 103.805 18.4587 104.332 17.7002C104.904 16.8766 105.34 15.5041 105.34 13.556C105.34 11.5908 104.903 10.2685 104.349 9.49518C103.845 8.79169 103.187 8.444 102.3 8.444C101.412 8.444 100.754 8.79169 100.25 9.49518C99.6964 10.2685 99.2595 11.5908 99.2595 13.556C99.2595 15.5041 99.6953 16.8766 100.267 17.7002ZM139.918 1.252V14.676C139.918 17.1991 139.552 19.3992 138.736 21.2045L143.395 15.614L144.941 17.0435C146.158 18.1689 147.655 18.808 148.847 18.808C149.676 18.808 150.025 18.6252 150.116 18.558C150.128 18.5486 150.136 18.542 150.14 18.538C150.144 18.5255 150.151 18.4919 150.151 18.428C150.151 18.4143 150.151 18.4028 150.151 18.3933C150.137 18.381 150.117 18.3647 150.09 18.3445C149.973 18.2568 149.78 18.1425 149.453 17.9874C149.17 17.8534 148.855 17.7202 148.465 17.5552C148.4 17.5275 148.332 17.4988 148.262 17.4692L145.507 16.3003C145.504 16.2991 145.501 16.2979 145.498 16.2966C143.059 15.286 140.071 13.073 140.071 8.88C140.071 4.09111 144.256 0.888 149.239 0.888C152.15 0.888 155.082 2.03199 157.161 4.14552L158.048 5.04711V1.252H174.76V8.724H166.192V9.512H173.472V16.984H166.192V18.528H175.068V26H158.048V20.411C156.984 23.9497 153.445 26.392 148.763 26.392C145.484 26.392 142.214 25.1067 139.82 22.812L138.549 21.5949C138.21 22.268 137.802 22.8818 137.321 23.4321C135.455 25.5702 132.815 26.392 129.91 26.392C127.018 26.392 124.371 25.5695 122.49 23.4416C120.651 21.3615 119.846 18.3685 119.846 14.676V1.252H127.99V15.04C127.99 17.0331 128.353 17.9498 128.646 18.339C128.843 18.6019 129.14 18.808 129.91 18.808C130.726 18.808 131.057 18.5899 131.269 18.3157C131.569 17.9289 131.942 17.0214 131.942 15.04V1.252H139.918ZM158.048 15.7091V5.86627L153.919 10.9862L152.358 9.69112C151.317 8.82718 150.382 8.444 149.239 8.444C148.718 8.444 148.435 8.54054 148.312 8.60207C148.326 8.61278 148.342 8.62456 148.361 8.63739C148.505 8.73775 148.724 8.85727 149.059 9.00641C149.357 9.13937 149.683 9.26864 150.075 9.42386C150.125 9.4438 150.176 9.46416 150.229 9.48502L150.25 9.49318L152.968 10.6422C152.971 10.6436 152.974 10.6449 152.978 10.6462C154.407 11.235 155.781 12.0576 156.795 13.3157C157.366 14.0238 157.785 14.8224 158.048 15.7091ZM152.207 12.492L149.491 11.344C149.44 11.3235 149.388 11.3032 149.338 11.283C147.643 10.6121 146.271 10.0686 146.271 8.628C146.271 7.256 147.419 6.444 149.239 6.444C150.848 6.444 152.159 6.99046 153.405 7.96639C153.482 8.02664 153.559 8.08851 153.635 8.152L155.735 5.548C155.282 5.08679 154.775 4.68071 154.229 4.33361C154.211 4.32181 154.192 4.31008 154.174 4.29842C152.711 3.38261 150.975 2.888 149.239 2.888C145.039 2.888 142.071 5.492 142.071 8.88C142.071 11.904 144.171 13.584 146.271 14.452L149.043 15.628C149.109 15.656 149.175 15.6837 149.239 15.711C150.98 16.4474 152.151 16.9431 152.151 18.428C152.151 19.884 151.003 20.808 148.847 20.808C147.32 20.808 145.693 20.157 144.333 19.1364C144.072 18.9411 143.822 18.7323 143.583 18.512L141.203 21.368C141.554 21.7042 141.928 22.015 142.321 22.299C142.469 22.4061 142.619 22.5095 142.773 22.6089C144.548 23.7607 146.656 24.392 148.763 24.392C153.551 24.392 156.379 21.508 156.379 18.12C156.379 15.124 154.727 13.528 152.207 12.492ZM125.99 3.252V15.04C125.99 19.352 127.502 20.808 129.91 20.808C132.374 20.808 133.942 19.352 133.942 15.04V3.252H137.918V14.676C137.918 21.564 134.978 24.392 129.91 24.392C124.87 24.392 121.846 21.564 121.846 14.676V3.252H125.99ZM171.472 11.512V14.984H164.192V20.528H173.068V24H160.048V3.252H172.76V6.724H164.192V11.512H171.472ZM41.5128 13.556C41.5128 20.276 37.7328 24.392 32.2448 24.392C26.7568 24.392 22.9768 20.276 22.9768 13.556C22.9768 6.808 26.7568 2.888 32.2448 2.888C37.7328 2.888 41.5128 6.836 41.5128 13.556ZM27.2048 13.556C27.2048 17.98 29.1648 20.808 32.2448 20.808C35.3248 20.808 37.2848 17.98 37.2848 13.556C37.2848 9.104 35.3248 6.444 32.2448 6.444C29.1648 6.444 27.2048 9.104 27.2048 13.556ZM111.568 13.556C111.568 20.276 107.788 24.392 102.3 24.392C96.8115 24.392 93.0315 20.276 93.0315 13.556C93.0315 6.808 96.8115 2.888 102.3 2.888C107.788 2.888 111.568 6.836 111.568 13.556ZM97.2595 13.556C97.2595 17.98 99.2195 20.808 102.3 20.808C105.38 20.808 107.34 17.98 107.34 13.556C107.34 9.104 105.38 6.444 102.3 6.444C99.2195 6.444 97.2595 9.104 97.2595 13.556Z" fill="#F08627"/>
</svg>
