<svg width="129" height="84" viewBox="0 0 129 84" fill="none" xmlns="http://www.w3.org/2000/svg">
<g clip-path="url(#clip0_470_77)">
<path d="M122.552 28.6699C114.772 25.1099 108.722 24.8999 104.732 25.3099C95.2815 26.2899 91.3515 31.3899 81.8715 31.8899C75.4315 32.2299 70.1015 30.2599 66.7715 28.6599V1.00994C74.5315 5.01994 80.6915 5.56994 84.8015 5.37994C92.3615 5.02994 95.8115 2.02994 104.552 0.61994C112.092 -0.590061 118.472 0.19994 122.562 0.99994V28.6699H122.552Z" fill="#FC6C3F"/>
<path d="M66.7615 1.01001V45.53" stroke="#B28247" stroke-miterlimit="10"/>
<path d="M80.2412 20.168C81.3932 20.168 82.3412 19.712 83.0732 18.86L82.1372 17.756C81.6572 18.272 81.0692 18.632 80.3012 18.632C78.8972 18.632 77.9852 17.468 77.9852 15.536C77.9852 13.628 78.9932 12.476 80.3372 12.476C81.0092 12.476 81.5252 12.788 81.9812 13.22L82.9052 12.092C82.3292 11.492 81.4292 10.952 80.3012 10.952C78.0572 10.952 76.1732 12.668 76.1732 15.596C76.1732 18.56 77.9972 20.168 80.2412 20.168ZM84.5039 20H89.8919V18.512H86.2799V11.108H84.5039V20ZM94.5124 20.168C96.8644 20.168 98.4844 18.404 98.4844 15.524C98.4844 12.644 96.8644 10.952 94.5124 10.952C92.1604 10.952 90.5404 12.632 90.5404 15.524C90.5404 18.404 92.1604 20.168 94.5124 20.168ZM94.5124 18.632C93.1924 18.632 92.3524 17.42 92.3524 15.524C92.3524 13.616 93.1924 12.476 94.5124 12.476C95.8324 12.476 96.6724 13.616 96.6724 15.524C96.6724 17.42 95.8324 18.632 94.5124 18.632ZM102.871 20.168C104.923 20.168 106.135 18.932 106.135 17.48C106.135 16.196 105.427 15.512 104.347 15.068L103.183 14.576C102.427 14.276 101.803 14.048 101.803 13.412C101.803 12.824 102.295 12.476 103.075 12.476C103.807 12.476 104.395 12.74 104.959 13.208L105.859 12.092C105.139 11.36 104.107 10.952 103.075 10.952C101.275 10.952 100.003 12.068 100.003 13.52C100.003 14.816 100.903 15.536 101.803 15.908L102.991 16.412C103.783 16.748 104.323 16.952 104.323 17.612C104.323 18.236 103.831 18.632 102.907 18.632C102.127 18.632 101.287 18.236 100.651 17.648L99.6307 18.872C100.495 19.7 101.683 20.168 102.871 20.168ZM107.707 20H113.287V18.512H109.483V16.136H112.603V14.648H109.483V12.596H113.155V11.108H107.707V20Z" fill="#FBE8C8"/>
</g>
<path d="M1.02361 82.8893H127.516C128.294 55.8852 110.973 38.4755 62.5951 37.8431C27.2592 37.8431 0.0848095 52.4201 1.02361 82.8893Z" fill="#EB862C" stroke="#8B2021" stroke-width="2" stroke-miterlimit="10"/>
<path d="M44.4535 49.0647C44.3859 49.4357 44.1913 49.7813 43.9207 50.0511" stroke="#F8B62D" stroke-width="2" stroke-miterlimit="10"/>
<path d="M53.7823 52.0492V54.3761" stroke="#F8B62D" stroke-width="2" stroke-miterlimit="10"/>
<path d="M79.6626 51.8721V54.199" stroke="#F8B62D" stroke-width="2" stroke-miterlimit="10"/>
<path d="M70.5706 53.3896L71.6363 55.8515" stroke="#F8B62D" stroke-width="2" stroke-miterlimit="10"/>
<path d="M70.4607 44.7144L71.7886 45.7176" stroke="#F8B62D" stroke-width="2" stroke-miterlimit="10"/>
<path d="M57.2753 46.0801C56.7594 45.9621 56.1927 46.0801 55.7698 46.392" stroke="#F8B62D" stroke-width="2" stroke-miterlimit="10"/>
<path d="M63.0941 49.562C63.1872 50.169 63.1533 50.8014 63.0011 51.3999" stroke="#F8B62D" stroke-width="2" stroke-miterlimit="10"/>
<path d="M35.6322 46.2404H38.4655" stroke="#F8B62D" stroke-width="2" stroke-miterlimit="10"/>
<path d="M90.2685 47.9518C91.1142 48.0192 91.9346 48.3565 92.5859 48.9045" stroke="#F8B62D" stroke-width="2" stroke-miterlimit="10"/>
<path d="M87.6635 53.7859C88.5093 53.8533 89.3297 54.1906 89.9809 54.7386" stroke="#F8B62D" stroke-width="2" stroke-miterlimit="10"/>
<path d="M83.7223 44.925C83.976 45.6838 83.7223 46.5775 83.1049 47.0834" stroke="#F8B62D" stroke-width="2" stroke-miterlimit="10"/>
<path d="M31.6317 54.2159C32.4098 54.1316 33.2049 54.1738 33.9661 54.3508" stroke="#F8B62D" stroke-width="2" stroke-miterlimit="10"/>
<defs>
<clipPath id="clip0_470_77">
<rect width="56.29" height="45.53" fill="white" transform="translate(66.2615)"/>
</clipPath>
</defs>
</svg>
