<svg width="129" height="84" viewBox="0 0 129 84" fill="none" xmlns="http://www.w3.org/2000/svg">
<g clip-path="url(#clip0_470_77)">
<path d="M122.552 28.6699C114.772 25.1099 108.722 24.8999 104.732 25.3099C95.2815 26.2899 91.3515 31.3899 81.8715 31.8899C75.4315 32.2299 70.1015 30.2599 66.7715 28.6599V1.00994C74.5315 5.01994 80.6915 5.56994 84.8015 5.37994C92.3615 5.02994 95.8115 2.02994 104.552 0.61994C112.092 -0.590061 118.472 0.19994 122.562 0.99994V28.6699H122.552Z" fill="#FC6C3F"/>
<path d="M66.7615 1.01001V45.53" stroke="#B28247" stroke-miterlimit="10"/>
<path d="M77.5644 20H79.1484V16.292C79.1484 15.452 79.0164 14.216 78.9204 13.376H78.9684L79.6884 15.464L81.0564 19.208H82.0764L83.4444 15.464L84.1764 13.376H84.2364C84.1404 14.216 83.9964 15.452 83.9964 16.292V20H85.6164V11.12H83.6484L82.1724 15.284C81.9924 15.836 81.8364 16.412 81.6324 16.988H81.5844C81.3924 16.412 81.2364 15.836 81.0324 15.284L79.5204 11.12H77.5644V20ZM87.7949 20H93.3749V18.512H89.5709V16.148H92.6789V14.648H89.5709V12.596H93.2429V11.12H87.7949V20ZM95.1777 20H96.8577V16.448C96.8577 15.416 96.7137 14.3 96.6297 13.352H96.6897L97.5897 15.248L100.158 20H101.97V11.12H100.278V14.66C100.278 15.668 100.422 16.856 100.518 17.78H100.458L99.5577 15.86L96.9777 11.12H95.1777V20ZM107.574 20.168C109.746 20.168 111.006 18.956 111.006 16.016V11.12H109.302V16.172C109.302 18.008 108.618 18.632 107.574 18.632C106.53 18.632 105.882 18.008 105.882 16.172V11.12H104.118V16.016C104.118 18.956 105.402 20.168 107.574 20.168Z" fill="#FBE8C8"/>
</g>
<path d="M1.02361 82.8893H127.516C128.294 55.8852 110.973 38.4755 62.5951 37.8431C27.2592 37.8431 0.0848095 52.4201 1.02361 82.8893Z" fill="#EB862C" stroke="#8B2021" stroke-width="2" stroke-miterlimit="10"/>
<path d="M44.4535 49.0647C44.3859 49.4357 44.1913 49.7813 43.9207 50.0511" stroke="#F8B62D" stroke-width="2" stroke-miterlimit="10"/>
<path d="M53.7823 52.0492V54.3761" stroke="#F8B62D" stroke-width="2" stroke-miterlimit="10"/>
<path d="M79.6626 51.8721V54.199" stroke="#F8B62D" stroke-width="2" stroke-miterlimit="10"/>
<path d="M70.5706 53.3896L71.6363 55.8515" stroke="#F8B62D" stroke-width="2" stroke-miterlimit="10"/>
<path d="M70.4607 44.7144L71.7886 45.7176" stroke="#F8B62D" stroke-width="2" stroke-miterlimit="10"/>
<path d="M57.2753 46.0801C56.7594 45.9621 56.1927 46.0801 55.7698 46.392" stroke="#F8B62D" stroke-width="2" stroke-miterlimit="10"/>
<path d="M63.0941 49.562C63.1872 50.169 63.1533 50.8014 63.0011 51.3999" stroke="#F8B62D" stroke-width="2" stroke-miterlimit="10"/>
<path d="M35.6322 46.2404H38.4655" stroke="#F8B62D" stroke-width="2" stroke-miterlimit="10"/>
<path d="M90.2685 47.9518C91.1142 48.0192 91.9346 48.3565 92.5859 48.9045" stroke="#F8B62D" stroke-width="2" stroke-miterlimit="10"/>
<path d="M87.6635 53.7859C88.5093 53.8533 89.3297 54.1906 89.9809 54.7386" stroke="#F8B62D" stroke-width="2" stroke-miterlimit="10"/>
<path d="M83.7223 44.925C83.976 45.6838 83.7223 46.5775 83.1049 47.0834" stroke="#F8B62D" stroke-width="2" stroke-miterlimit="10"/>
<path d="M31.6317 54.2159C32.4098 54.1316 33.2049 54.1738 33.9661 54.3508" stroke="#F8B62D" stroke-width="2" stroke-miterlimit="10"/>
<defs>
<clipPath id="clip0_470_77">
<rect width="56.29" height="45.53" fill="white" transform="translate(66.2615)"/>
</clipPath>
</defs>
</svg>
