<svg width="134" height="36" viewBox="0 0 134 36" fill="none" xmlns="http://www.w3.org/2000/svg">
<path d="M1.73673 4.27849V20.2803C1.68598 23.1215 3.43671 25.0269 6.29539 26.3421L128.297 25.499C130.741 24.6897 132.415 22.8854 132.703 19.2686L131.519 4.27849C131.265 2.78623 130.394 2.02745 128.982 1.91785C128.982 1.91785 5.77102 1.91785 3.74964 1.91785C1.72827 1.91785 1.72827 4.27849 1.72827 4.27849H1.73673Z" fill="#923635" stroke="#8B2021" stroke-width="2" stroke-miterlimit="10"/>
<path d="M120.955 1.96004C121.268 3.43544 121.048 4.74223 120.059 5.75394C119.069 6.76564 110.95 4.26167 108.48 9.56469C106.011 14.8677 102.027 35.8353 91.489 34.3431C80.9424 32.8592 78.7603 19.8082 73.6519 17.4897C68.5435 15.1712 68.8818 21.174 62.361 21.3679C55.8401 21.5618 58.0138 6.83309 52.2034 5.73707C46.393 4.64106 40.8194 15.7614 35.305 16.301C29.7907 16.8405 15.3366 1.74927 15.3366 1.74927L120.964 1.96004H120.955Z" fill="#F7B000" stroke="#8B2021" stroke-width="2" stroke-miterlimit="10"/>
</svg>
