<svg width="148" height="31" viewBox="0 0 148 31" fill="none" xmlns="http://www.w3.org/2000/svg">
<path d="M11.8022 12.5418C9.7301 12.5081 8.3938 13.5114 7.60724 15.2987V25.0533C8.14853 27.3971 9.7301 28.5184 11.8022 29.0579H133.575C136.941 28.4088 138.929 26.6383 139.859 24.0078V18.0894C139.724 15.5264 138.337 14.8097 136.721 14.4304L11.8107 12.5503L11.8022 12.5418Z" fill="#E9462C" stroke="#8B2021" stroke-width="2" stroke-miterlimit="10"/>
<path d="M8.14007 1.01687C3.86051 1.42998 -0.765813 4.67587 1.67844 7.63511C4.1227 10.5943 14.6102 7.17984 14.2549 12.5419C13.8997 17.9039 15.3037 18.081 20.8942 19.9948C26.4847 21.9086 35.0438 14.599 40.6343 14.2449C46.2248 13.8908 54.2595 21.7315 60.0276 21.7315C65.7957 21.7315 71.031 18.7723 75.4881 18.0725C79.9453 17.3728 92.175 22.5999 97.9431 22.5999C103.711 22.5999 107.729 15.2819 112.964 13.5452C118.199 11.8084 128.348 19.4636 134.099 19.118C139.851 18.7723 144.232 9.36344 146.854 7.27258C149.475 5.18172 139.859 1 139.859 1H8.14007V1.01687Z" fill="#90B045" stroke="#8B2021" stroke-width="2" stroke-miterlimit="10"/>
</svg>
